<svg width="484" height="524" viewBox="0 0 484 524" fill="none" xmlns="http://www.w3.org/2000/svg">
<path d="M386.614 208.913V145.607C386.614 80.0803 321.087 9 236.679 9C152.271 9 86.7441 80.0803 86.7441 145.607V175.594" stroke="white" stroke-width="17" stroke-miterlimit="10"/>
<path d="M342.189 220.02V242.232C342.189 274.44 328.861 308.87 297.764 329.972" stroke="white" stroke-width="17" stroke-miterlimit="10"/>
<path d="M175.594 75.6377C175.594 137.833 301.095 220.019 364.401 220.019" stroke="white" stroke-width="17" stroke-miterlimit="10"/>
<path d="M175.594 131.169C148.939 142.275 120.063 171.152 120.063 208.913V242.232C120.063 281.104 148.939 319.976 194.475 339.967" stroke="white" stroke-width="17" stroke-miterlimit="10"/>
<path d="M275.551 375.508C275.551 387.724 265.555 397.72 253.338 397.72H242.232C230.015 397.72 220.02 387.724 220.02 375.508C220.02 363.291 230.015 353.295 242.232 353.295H253.338C266.666 353.295 275.551 363.291 275.551 375.508Z" stroke="white" stroke-width="17" stroke-miterlimit="10"/>
<path d="M264.445 375.508H275.551C336.636 375.508 386.614 333.304 386.614 274.441" stroke="white" stroke-width="17" stroke-miterlimit="10"/>
<path d="M408.827 175.594H386.614V275.551H408.827C421.044 275.551 431.039 265.555 431.039 253.338V197.807C431.039 185.59 422.154 175.594 408.827 175.594Z" stroke="white" stroke-width="17" stroke-miterlimit="10"/>
<path d="M64.5314 175.594H86.744V275.551H64.5314C52.3145 275.551 42.3188 265.555 42.3188 253.338V197.807C42.3188 185.59 52.3145 175.594 64.5314 175.594Z" stroke="white" stroke-width="17" stroke-miterlimit="10"/>
<path d="M164.488 319.976V408.827" stroke="white" stroke-width="17" stroke-miterlimit="10"/>
<path d="M164.866 398.66L131.882 431.644L209.63 509.391L242.613 476.407L164.866 398.66Z" stroke="white" stroke-width="17" stroke-miterlimit="10"/>
<path d="M320.691 397.874L242.944 475.622L275.928 508.605L353.675 430.858L320.691 397.874Z" stroke="white" stroke-width="17" stroke-miterlimit="10"/>
<path d="M131.169 431.039L67.8633 445.477C44.5401 451.03 26.7701 467.69 18.9957 489.902L9 519.889" stroke="white" stroke-width="17" stroke-miterlimit="10"/>
<path d="M353.295 431.039L416.601 445.477C439.924 451.03 457.694 467.69 465.468 489.902L475.464 521" stroke="white" stroke-width="17" stroke-miterlimit="10"/>
</svg>
