<svg width="267" height="83" viewBox="0 0 267 83" fill="none" xmlns="http://www.w3.org/2000/svg">
<g clip-path="url(#clip0_37_33)">
<path d="M72 55.1C59.7 64.4 47.3 73.7 35 83.1C32.7 81.1 30.4 79.1 28 77.1C42.7 65.8 57.3 54.4 72 43.1C72 47 72 51 72 55.1Z" fill="#282828"/>
<path d="M71.9 32.9C54.9 45.7 37.9 58.5 20.9 71.4C18.6 69.4 16.3 67.4 13.9 65.4C33.3 51 52.6 36.5 71.9 22.1C71.9 25.7 71.9 29.3 71.9 32.9Z" fill="#282828"/>
<path d="M72 11C50.4 27.3 28.8 43.6 7.10001 59.9C4.80001 57.9 2.50001 55.9 0.100006 53.9C24.1 35.9 48.1 18 72 0C72 3.7 72 7.3 72 11Z" fill="#282828"/>
<path d="M0.1 7.99999C3.8 7.99999 11 8.49999 19 12.5C26.3 16.2 30.7 21.1 33 24C35 22.3 37 20.6 39.1 18.8C36.6 15.5 31.4 9.39999 22.7 4.99999C13 0.0999913 4.2 -0.100009 0 0.0999912C0 2.69999 0 5.39999 0.1 7.99999Z" fill="#282828"/>
<path d="M0.1 26C2.2 25.9 6.2 26 10.7 28.1C14.6 29.9 17.2 32.5 18.5 34C20.5 32.4 22.5 30.8 24.5 29.2C22.8 27.2 19.4 23.8 14.1 21.5C8 18.8 2.7 18.8 0 19C0 21.3 0 23.6 0.1 26Z" fill="#282828"/>
<path d="M0.0999939 42.1C0.899994 42.1 1.89999 42.3 2.99999 42.6C4.29999 43 5.29999 43.6 5.99999 44C7.69999 42.7 9.39999 41.4 11.1 40C10.4 39.1 8.79999 37.2 5.99999 36C3.49999 34.9 1.19999 34.9 0.0999939 35C-6.10203e-06 37.4 -6.10203e-06 39.7 0.0999939 42.1Z" fill="#282828"/>
</g>
<circle cx="98" cy="41" r="6" fill="#282828"/>
<path d="M145.56 50.56H133.72L131.52 56H123.44L135.8 28H143.6L156 56H147.76L145.56 50.56ZM143.24 44.72L139.64 35.76L136.04 44.72H143.24ZM174.402 56L168.602 47.32L162.882 56H153.842L164.042 41.84L154.282 28H163.202L168.802 36.08L174.322 28H182.882L173.122 41.52L183.522 56H174.402ZM207.835 49.88V56H185.355V28H207.315V34.12H193.195V38.84H205.635V44.76H193.195V49.88H207.835ZM212.23 28H220.15V49.72H233.51V56H212.23V28ZM255.716 50.56H243.876L241.676 56H233.596L245.956 28H253.756L266.156 56H257.916L255.716 50.56ZM253.396 44.72L249.796 35.76L246.196 44.72H253.396Z" fill="#282828"/>
<defs>
<clipPath id="clip0_37_33">
<rect width="72" height="83" fill="white"/>
</clipPath>
</defs>
</svg>
