<svg width="72" height="83" viewBox="0 0 72 83" fill="none" xmlns="http://www.w3.org/2000/svg">
<g clip-path="url(#clip0_37_30)">
<path d="M72 55.1C59.7 64.4 47.3 73.7 35 83.1C32.7 81.1 30.4 79.1 28 77.1C42.7 65.8 57.3 54.4 72 43.1C72 47 72 51 72 55.1Z" fill="#282828"/>
<path d="M71.9 32.9C54.9 45.7 37.9 58.5 20.9 71.4C18.6 69.4 16.3 67.4 13.9 65.4C33.3 51 52.6 36.5 71.9 22.1C71.9 25.7 71.9 29.3 71.9 32.9Z" fill="#282828"/>
<path d="M72 11C50.4 27.3 28.8 43.6 7.10001 59.9C4.80001 57.9 2.50001 55.9 0.100006 53.9C24.1 35.9 48.1 18 72 0C72 3.7 72 7.3 72 11Z" fill="#282828"/>
<path d="M0.1 7.99999C3.8 7.99999 11 8.49999 19 12.5C26.3 16.2 30.7 21.1 33 24C35 22.3 37 20.6 39.1 18.8C36.6 15.5 31.4 9.39999 22.7 4.99999C13 0.0999913 4.2 -0.100009 0 0.0999912C0 2.69999 0 5.39999 0.1 7.99999Z" fill="#282828"/>
<path d="M0.1 26C2.2 25.9 6.2 26 10.7 28.1C14.6 29.9 17.2 32.5 18.5 34C20.5 32.4 22.5 30.8 24.5 29.2C22.8 27.2 19.4 23.8 14.1 21.5C8 18.8 2.7 18.8 0 19C0 21.3 0 23.6 0.1 26Z" fill="#282828"/>
<path d="M0.0999939 42.1C0.899994 42.1 1.89999 42.3 2.99999 42.6C4.29999 43 5.29999 43.6 5.99999 44C7.69999 42.7 9.39999 41.4 11.1 40C10.4 39.1 8.79999 37.2 5.99999 36C3.49999 34.9 1.19999 34.9 0.0999939 35C-6.10203e-06 37.4 -6.10203e-06 39.7 0.0999939 42.1Z" fill="#282828"/>
</g>
<defs>
<clipPath id="clip0_37_30">
<rect width="72" height="83" fill="white"/>
</clipPath>
</defs>
</svg>
