<?xml version="1.0" standalone="no"?>
<!DOCTYPE svg PUBLIC "-//W3C//DTD SVG 20010904//EN"
 "http://www.w3.org/TR/2001/REC-SVG-20010904/DTD/svg10.dtd">
<svg version="1.0" xmlns="http://www.w3.org/2000/svg"
 width="664.000000pt" height="664.000000pt" viewBox="0 0 664.000000 664.000000"
 preserveAspectRatio="xMidYMid meet">
<metadata>
Created by potrace 1.14, written by Peter Selinger 2001-2017
</metadata>
<g transform="translate(0.000000,664.000000) scale(0.100000,-0.100000)"
fill="#000000" stroke="none">
<path d="M449 6629 c-11 -7 -9 -612 3 -624 3 -3 66 -8 139 -10 74 -3 152 -7
174 -10 22 -4 58 -8 80 -10 69 -6 134 -16 254 -41 64 -14 127 -27 141 -30 14
-3 79 -21 145 -40 66 -19 125 -36 130 -38 6 -2 19 -7 30 -11 11 -4 67 -26 125
-47 130 -49 411 -186 490 -239 33 -21 64 -39 70 -39 5 0 10 -4 10 -10 0 -5 6
-10 13 -10 6 0 36 -18 65 -40 29 -22 55 -40 57 -40 5 0 95 -67 125 -93 8 -7
35 -29 60 -48 132 -102 396 -368 497 -501 l21 -28 34 28 c19 15 40 33 48 40
19 16 52 44 165 140 50 42 97 83 106 91 8 9 32 30 53 46 21 17 49 40 61 51
l24 22 -76 93 c-195 240 -417 461 -613 609 -18 14 -38 30 -44 35 -14 13 -98
73 -196 140 -77 53 -263 165 -277 167 -5 0 -24 11 -44 23 -33 21 -245 125
-255 125 -2 0 -23 9 -47 19 -86 38 -281 109 -347 127 -8 2 -46 13 -85 24 -96
28 -282 71 -325 75 -19 2 -35 4 -35 5 0 2 -43 10 -75 14 -14 2 -25 4 -25 5 0
1 -18 4 -40 6 -22 2 -60 6 -85 9 -164 19 -528 29 -551 15z"/>
<path d="M6050 6528 c-80 -60 -146 -113 -148 -119 -2 -5 -8 -9 -14 -9 -6 0
-33 -18 -62 -40 -28 -22 -55 -43 -61 -48 -5 -4 -104 -78 -220 -165 -115 -86
-214 -160 -220 -165 -49 -38 -450 -339 -463 -347 -9 -5 -19 -13 -22 -16 -3 -3
-77 -59 -165 -125 -88 -65 -166 -125 -175 -131 -8 -7 -62 -47 -120 -90 -58
-43 -109 -81 -115 -86 -5 -5 -127 -96 -270 -203 -143 -106 -269 -200 -280
-209 -38 -30 -70 -54 -205 -154 -74 -55 -140 -105 -147 -110 -7 -6 -27 -21
-45 -34 -19 -12 -40 -28 -48 -35 -8 -7 -59 -45 -112 -85 -54 -39 -136 -101
-183 -137 -48 -36 -99 -74 -114 -85 -41 -29 -280 -208 -376 -282 -15 -12 -718
-537 -730 -545 -5 -4 -26 -21 -46 -38 -20 -16 -41 -30 -47 -30 -6 0 -12 -3
-14 -8 -2 -4 -104 -83 -228 -175 -124 -93 -236 -177 -250 -188 -14 -11 -113
-85 -220 -165 -107 -80 -206 -154 -220 -165 -14 -11 -52 -39 -85 -64 -33 -24
-67 -51 -76 -60 -9 -8 -20 -15 -25 -15 -5 0 -17 -8 -26 -17 -9 -10 -28 -26
-42 -36 -30 -21 -34 -15 59 -92 33 -27 65 -54 71 -60 6 -5 33 -29 60 -52 27
-23 60 -51 74 -63 14 -12 45 -39 70 -60 64 -55 90 -77 130 -113 68 -62 65 -61
102 -35 18 13 37 29 41 36 4 6 12 12 17 12 9 0 28 14 64 45 6 6 99 75 206 155
107 80 197 147 200 151 3 3 39 30 80 60 41 29 86 64 100 76 14 13 28 23 31 23
3 0 22 13 40 30 19 16 37 30 40 30 4 0 22 13 40 30 19 16 37 30 41 30 4 0 13
6 20 13 7 7 76 60 153 117 77 58 142 108 143 113 2 4 10 7 17 7 7 0 15 4 17 8
2 5 30 28 63 53 33 24 62 46 65 49 3 3 158 120 345 260 386 289 351 262 390
293 17 13 215 162 440 332 425 320 563 424 580 438 6 4 82 62 170 128 88 66
171 128 185 139 39 30 333 253 364 275 32 23 94 70 116 88 8 7 31 23 50 37 19
13 37 27 40 30 3 3 32 25 65 50 33 24 65 48 70 53 6 4 42 31 80 60 39 28 76
57 83 64 7 7 16 13 20 13 4 0 22 14 41 30 18 17 37 30 40 30 3 0 17 10 31 23
14 12 59 47 100 77 41 30 77 57 80 60 3 3 21 17 40 30 19 13 37 27 40 30 3 3
32 25 65 50 33 24 65 48 70 52 60 50 248 188 255 188 19 0 21 50 18 471 l-3
426 -145 -109z"/>
<path d="M467 5122 l-29 -3 3 -262 c2 -144 5 -270 7 -280 4 -15 13 -18 54 -14
27 2 51 0 54 -5 3 -4 13 -4 23 2 10 5 20 8 22 6 2 -2 37 -7 77 -10 92 -8 129
-13 217 -33 39 -8 77 -16 85 -17 156 -26 550 -220 658 -323 7 -7 17 -13 21
-13 5 0 64 -54 132 -120 68 -66 129 -120 134 -119 8 0 249 187 330 257 11 9
48 39 83 66 34 27 62 50 62 52 0 6 -223 228 -255 254 -231 189 -404 291 -686
404 -64 25 -123 46 -131 46 -8 0 -18 3 -22 7 -3 4 -13 8 -20 9 -7 1 -38 9 -67
17 -30 9 -70 19 -89 22 -19 3 -48 10 -65 15 -16 5 -50 12 -75 15 -25 2 -56 7
-70 9 -89 16 -374 27 -453 18z"/>
<path d="M6160 4849 c-14 -10 -32 -25 -40 -31 -8 -7 -22 -17 -31 -23 -14 -8
-100 -72 -174 -129 -24 -18 -69 -52 -335 -251 -110 -82 -260 -195 -334 -250
-73 -55 -145 -109 -160 -120 -72 -52 -293 -216 -306 -228 -8 -7 -49 -38 -90
-68 -41 -29 -82 -60 -90 -66 -8 -7 -175 -132 -370 -278 -195 -145 -366 -273
-380 -284 -14 -10 -65 -49 -115 -86 -49 -36 -101 -75 -115 -85 -14 -11 -131
-98 -260 -194 -129 -97 -246 -184 -260 -195 -14 -10 -68 -50 -120 -89 -52 -39
-99 -75 -105 -79 -5 -5 -62 -47 -125 -93 -63 -46 -117 -87 -120 -90 -5 -6
-114 -85 -150 -110 -12 -8 -28 -20 -34 -25 -6 -6 -117 -89 -246 -185 -129 -96
-237 -176 -240 -180 -3 -3 -27 -21 -55 -39 -27 -19 -52 -38 -55 -41 -3 -3 -30
-23 -60 -45 -30 -22 -57 -42 -60 -45 -3 -3 -29 -23 -59 -44 -30 -21 -59 -43
-65 -48 -6 -5 -20 -15 -31 -23 -19 -14 -19 -16 27 -57 25 -24 55 -50 66 -58
22 -17 124 -104 159 -137 13 -11 42 -35 63 -53 21 -18 50 -42 63 -53 57 -52
150 -132 156 -134 5 -3 89 59 227 164 16 13 47 36 69 53 22 16 45 33 50 38 6
4 42 31 80 60 39 28 85 64 104 79 18 16 41 32 50 37 9 5 20 15 24 23 4 7 14
13 22 13 7 0 15 4 17 8 2 5 77 64 168 132 91 68 167 127 168 132 2 4 8 8 13 8
6 0 19 9 31 20 12 11 40 32 62 47 23 16 51 38 64 51 13 12 26 22 31 22 4 0 23
13 42 30 49 43 50 43 92 69 20 12 37 26 37 30 0 4 12 14 28 23 15 9 36 24 47
33 17 13 92 70 245 185 14 11 59 44 100 75 41 31 82 62 90 68 9 7 33 25 55 42
22 16 47 35 55 42 8 7 49 37 90 67 41 30 80 59 85 63 6 5 91 70 190 143 99 74
182 137 185 140 3 4 169 129 370 280 201 150 367 277 368 282 2 4 10 8 17 8 8
0 18 6 22 13 4 7 33 30 63 52 30 22 57 43 58 47 2 5 8 8 13 8 8 0 31 17 63 45
6 6 27 22 46 35 19 13 37 27 40 30 3 3 39 30 80 60 41 30 77 57 80 60 3 3 21
17 40 30 19 13 40 29 46 35 6 5 23 19 38 30 30 22 95 70 111 83 6 4 28 21 50
37 22 17 45 35 50 40 9 9 13 850 4 859 -2 3 -15 -4 -29 -15z"/>
<path d="M474 3840 l-30 -5 0 -277 c1 -152 3 -278 6 -281 3 -3 30 -7 60 -11
30 -3 70 -10 88 -15 18 -5 36 -10 40 -10 32 -3 127 -39 199 -76 l87 -44 40 32
c23 17 43 34 46 37 3 3 23 18 45 34 22 16 93 72 157 124 l117 94 -27 30 c-51
59 -117 123 -157 153 -22 16 -45 34 -52 41 -15 14 -177 97 -223 113 -19 7 -44
17 -55 21 -68 27 -273 51 -341 40z"/>
<path d="M6015 3050 c-94 -72 -177 -136 -185 -143 -9 -6 -33 -25 -55 -42 -22
-16 -45 -34 -51 -40 -7 -5 -53 -41 -104 -80 -51 -38 -100 -77 -109 -85 -9 -8
-32 -26 -51 -40 -19 -13 -46 -35 -60 -47 -14 -13 -28 -23 -31 -23 -3 0 -15 -8
-26 -17 -26 -22 -68 -56 -158 -124 -38 -29 -76 -58 -85 -65 -14 -12 -240 -187
-429 -332 -40 -32 -78 -62 -85 -68 -15 -14 -125 -97 -145 -109 -8 -5 -20 -15
-26 -21 -5 -6 -41 -35 -80 -64 -38 -29 -71 -56 -73 -61 -2 -5 -10 -9 -17 -9
-7 0 -15 -4 -17 -8 -1 -4 -32 -30 -68 -57 -36 -27 -67 -52 -70 -55 -3 -3 -32
-25 -65 -50 -141 -107 -200 -154 -203 -162 -2 -4 -10 -8 -17 -8 -7 0 -15 -4
-17 -8 -1 -5 -82 -69 -178 -142 -96 -74 -177 -137 -180 -140 -3 -3 -43 -34
-90 -70 -47 -35 -86 -67 -88 -72 -2 -4 -10 -8 -17 -8 -7 0 -15 -4 -17 -8 -3
-8 -81 -69 -243 -192 -33 -25 -62 -47 -65 -51 -3 -3 -23 -18 -45 -35 -22 -16
-46 -34 -55 -41 -8 -7 -39 -31 -67 -53 -29 -23 -53 -45 -53 -50 0 -4 18 -22
40 -40 21 -17 49 -41 62 -52 13 -11 43 -37 68 -58 68 -58 90 -77 150 -129 152
-133 222 -191 231 -191 6 0 97 66 204 148 106 81 206 156 221 167 15 11 32 25
38 30 6 6 85 66 176 135 91 68 167 128 168 132 2 4 10 8 17 8 7 0 15 4 17 8 3
7 124 99 508 388 58 43 107 81 110 84 3 3 21 17 40 30 19 13 37 27 40 30 3 3
59 46 125 95 66 49 125 93 130 97 6 5 21 17 34 28 13 11 27 20 30 20 3 0 18
10 32 23 30 25 70 56 139 107 26 19 84 63 129 98 45 34 86 62 91 62 6 0 10 4
10 8 0 5 21 24 48 43 26 18 97 72 159 119 61 47 121 92 133 100 12 8 28 20 34
25 6 6 82 63 169 129 l157 119 0 473 c0 261 -4 474 -8 474 -4 0 -84 -59 -177
-130z"/>
</g>
</svg>
